<?xml version="1.0" encoding="utf-8"?>
<!-- Generator: Adobe Illustrator 20.1.0, SVG Export Plug-In . SVG Version: 6.00 Build 0)  -->
<svg version="1.1" id="Layer_1" xmlns="http://www.w3.org/2000/svg" xmlns:xlink="http://www.w3.org/1999/xlink" x="0px" y="0px"
	 viewBox="0 0 335 65" style="enable-background:new 0 0 335 65;" xml:space="preserve">
<style type="text/css">
	.st0{fill:#D4B263;}
	.st1{fill:#FFFFFF;}
</style>
<g>
	<g>
		<path class="st0" d="M51.7,63.1h-9.1l0-1.2c0-0.1,0.3-14.9,0.3-29.1c0-14.2-0.3-21.2-0.3-21.3l-0.1-1.2h9.2l-0.1,1.2
			c0,0.1-0.3,7.1-0.3,21.3c0,14.2,0.3,28.9,0.3,29.1L51.7,63.1z"/>
		<path class="st0" d="M245.1,63.6l-1.3,0c-10.1-0.5-14.2-7.4-14.2-23.4l0-3.9c0-14.2-0.3-24.6-0.3-24.7l0-1.2h9.2l0,1.2
			c0,0.1-0.3,9.8-0.3,24l0,3.8c0,13,2.3,15.4,6.9,15.4c4.5-0.1,6.8-2.4,6.8-15.3l0-3.9c0-14.2-0.3-23.9-0.3-24l0-1.2h9.2l0,1.2
			c0,0.1-0.3,10.5-0.3,24.7l0,3.8c0,16-4.1,22.9-14,23.5v0L245.1,63.6z"/>
		<path class="st0" d="M188.4,61.6c-1-3.3-3.6-12-6.3-22.1c3-3.1,4.6-7.3,4.6-12.6c0-6-1.8-10.5-5.3-13.5c-2.9-2.5-6.8-3.7-11.7-3.6
			c-1.6,0-3.9,0.2-6,0.3c-1.4,0.1-2.7,0.2-3.4,0.2h-2.6l0.1,1.2c0,0.1,0.3,7.1,0.3,21.3c0,14.2-0.3,28.9-0.3,29.1l0,1.2h9.1l0-1.2
			c0-0.1-0.2-8-0.3-17.8c2.6,0.4,5.2,0.3,7.6-0.3c2.2,8.4,3.6,15,4.2,18.3l0.2,0.9h10.3L188.4,61.6z M169.6,35.9
			c-1.1,0-2.1-0.1-3.2-0.4l0-2.6c0-5,0-9.7,0.1-13.8c1.1-0.2,2.3-0.3,3.5-0.3c6.9,0,7.4,6.3,7.4,8.2
			C177.5,31.3,174.7,35.9,169.6,35.9z"/>
		<path class="st0" d="M293.8,33.6c2.5-3.1,3.6-6.9,3-11c-1.1-7.2-6.7-12-14.6-12.4l-1,0c-1,0-2.5,0-3.9,0.1c-1.2,0-2.4,0.1-3.1,0.1
			h-4.9l0.1,1.2c0,0.1,0.3,7.1,0.3,21.3c0,14.2-0.3,28.9-0.3,29.1l0,1.2h6.4c1,0,2.2,0.1,3.3,0.2c1.4,0.1,2.8,0.3,4,0.3c0,0,0,0,0,0
			c10.1,0,17.6-7.1,17.6-16.5C300.8,41.4,298.3,36.6,293.8,33.6z M278.3,19c0.8-0.1,1.4-0.1,2.6-0.1c0.1,0,6.1,0.1,6.9,5v0
			c0.2,1.6-0.1,2.9-1.1,4.1c-0.9,1-2.8,2.5-8.5,3.3C278.2,26.9,278.2,22.7,278.3,19z M283.2,54.5c-2.3,0-3.5-0.2-4.8-0.5
			c-0.1-3.8-0.1-8.5-0.1-13.6c1-0.3,2.7-0.7,4.9-0.7c5.3,0,8.5,2.8,8.5,7.4C291.7,52,287.4,54.5,283.2,54.5z"/>
		<path class="st0" d="M332,63.1l-25-0.1l0-1.2c0-0.1,0.4-14.9,0.4-29.1c0-14.2-0.3-21.2-0.3-21.3l-0.1-1.2l23.7,0.1l0.9,8.8
			l-1.4-0.2c0,0-4.4-0.5-14.3-0.6c-0.1,3.4-0.1,7.1-0.1,11c5.2-1,11.1-1.3,15.9-0.7l0.9,0.1l0.9,9l-1.5-0.3
			c-4.9-0.9-11.3-0.9-16.2,0c0,6.7,0.1,13.1,0.1,17.6c11.1-0.1,15.5-0.6,15.5-0.6l1.4-0.1L332,63.1z"/>
		<path class="st0" d="M76.6,63.1h-9.2l0-1.2c0-0.1,0.3-12.8,0.3-27c0-7.1-0.1-12.7-0.2-16.5c-4.8,0.1-8.5,0.3-8.6,0.3l-1.3,0.1
			l0.9-8.5l14,0l12.8,0l0.9,8.5L85,18.8c0,0-3.6-0.3-8.5-0.3c-0.1,3.8-0.2,9.4-0.2,16.5c0,14.2,0.3,26.9,0.3,27L76.6,63.1z"/>
		<path class="st0" d="M107.8,63.1h-9.2l0-1.2c0-0.1,0.3-12.8,0.3-27c0-7.1-0.1-12.7-0.2-16.5c-5,0.1-8.5,0.3-8.5,0.3l-1.4,0.1
			l0.9-8.5l12.8,0l14,0l0.9,8.5l-1.3-0.1c0,0-3.8-0.2-8.6-0.3c-0.1,3.8-0.2,9.4-0.2,16.5c0,14.2,0.3,26.9,0.3,27L107.8,63.1z"/>
		<path class="st0" d="M148.7,63.1l-25-0.1l0-1.2c0-0.1,0.4-14.9,0.4-29.1c0-14.2-0.3-21.2-0.3-21.3l-0.1-1.2l23.7,0.1l0.9,8.8
			L147,19c0,0-4.4-0.5-14.2-0.6c-0.1,3.4-0.1,7.1-0.1,11c5.2-1,11.1-1.3,15.9-0.7l0.9,0.1l0.9,9l-1.5-0.3c-4.9-0.9-11.3-0.9-16.2,0
			c0,6.7,0.1,13.1,0.1,17.6c11.1-0.1,15.5-0.6,15.5-0.6l1.4-0.1L148.7,63.1z"/>
		<path class="st0" d="M224,55c-0.5-1.7-1-3.5-1.5-5.4l-0.4-1.5c-1.1,1.5-2.4,2.9-3.8,4c-1.1,1-2.5,1.8-3.8,2.3c0,0-0.1,0-0.1,0
			c-0.2,0.1-0.4,0.1-0.6,0.2c-0.1,0-0.3,0.1-0.4,0.1c-0.2,0-0.3,0.1-0.5,0.1c-0.1,0-0.2,0-0.3,0c-0.3,0-0.5,0-0.7,0
			c-6.3,0-10.1-6.7-10.1-17.4c0-11.1,5.2-18.8,9.9-18.8c3,0,5.5,1.5,8,4.8l0.5-0.1l1.9-13l-1.4,0c-2,0-3.3-0.1-4.7-0.2
			c-1.4-0.1-2.8-0.3-4.9-0.3c-10.1,0-18.1,12.1-18.1,27.5c0,15.9,7.3,26.2,18.5,26.2c5.5,0,10.8-3.2,12.9-5.3l0.5-0.5L224,55z"/>
		<path class="st0" d="M26.2,26.1c3.3-3.3,4.2-6.8,4.2-10c0-8.2-6.6-14.5-15.4-14.7l-1.1,0c-1.1,0-2.6,0.1-4.2,0.2
			C8.1,1.6,6.5,1.7,5.4,1.7H1.6l0,1.2C1.7,3,2,11.6,2,25.8c0,11.7-0.2,26.9-0.3,32.8l-0.3,4.5h10.1c14.2,0,23.4-8.4,23.4-21.4
			C34.9,35.4,31.7,29.7,26.2,26.1z M10.9,10.1c1-0.2,2.2-0.4,3.6-0.4c3.2,0,6.7,2.4,6.7,6.4c0,3.2-2.9,6.3-6.9,6.3
			c-1.5,0-2.9,0.1-3.6,0.2C10.8,18.2,10.9,14,10.9,10.1z M12,54.5c-0.3,0-0.6,0-0.9,0c-0.1-4-0.2-13.7-0.3-23.4
			c0.9-0.1,1.9-0.2,3-0.2c7.3,0.3,12,4.6,12,11C25.8,49.7,20.7,54.5,12,54.5z"/>
	</g>
	<g>
		<path class="st1" d="M44.9,60.8h4.5c-0.1-3.8-0.3-16-0.3-28c0-10.9,0.2-17.6,0.3-20.2h-4.4c0.1,2.6,0.3,9.3,0.3,20.2
			C45.2,44.8,45,57,44.9,60.8z"/>
		<path class="st1" d="M231.7,12.7c0.1,3.1,0.3,12.1,0.3,23.6l0,3.8c0,17.5,5.2,21.1,12.9,21.2l0.1,0l0.1,0
			c7.8-0.1,12.9-3.7,12.9-21.1l0-3.9c0-11.5,0.2-20.5,0.3-23.6h-4.4c0.1,3,0.3,11.5,0.3,22.9l0,3.9c0,11.1-1.5,17.6-9.1,17.7
			c-7.7-0.1-9.2-6.5-9.2-17.6l0-3.9c0-11.4,0.2-19.9,0.3-22.9H231.7z"/>
		<path class="st1" d="M309.3,60.8l20.6,0.1l0.4-3.9c-2.2,0.2-7,0.4-15.5,0.5l-1.1,0l0-1.1c-0.1-4.8-0.1-12.1-0.1-19.7l0-0.9
			l0.9-0.2c4.9-1.1,11.3-1.2,16.5-0.5l-0.4-4.1c-4.8-0.5-10.7-0.1-15.6,1.1l-1.4,0.3l0-1.5c0-5,0.1-9.5,0.2-13.6l0-1.1l1.1,0
			c7.6,0.1,12.1,0.4,14.2,0.6l-0.4-3.9l-19.2-0.1c0.1,2.6,0.2,9.3,0.2,20.2C309.7,44.7,309.4,57,309.3,60.8z"/>
		<path class="st1" d="M126.1,60.8l20.6,0.1l0.4-3.9c-2.2,0.2-7,0.4-15.5,0.5l-1.1,0l0-1.1c-0.1-4.8-0.1-12.1-0.1-19.7l0-0.9
			l0.9-0.2c4.8-1.1,11.3-1.2,16.5-0.5l-0.4-4.1c-4.8-0.5-10.7-0.1-15.6,1.1l-1.4,0.3l0-1.5c0-5,0.1-9.5,0.2-13.6l0-1.1l1.1,0
			c7.6,0.1,12.1,0.4,14.2,0.6l-0.4-3.9l-19.3-0.1c0.1,2.6,0.2,9.3,0.2,20.2C126.4,44.7,126.2,57,126.1,60.8z"/>
		<path class="st1" d="M210.9,12.3c-8.8,0-15.8,11.1-15.8,25.2c0,14.5,6.4,23.9,16.2,23.9c4.2,0,8.6-2.3,10.8-4.2l-0.4-1.6
			c-0.3-0.9-0.6-1.9-0.8-2.9c-2.4,2.9-6.2,4.5-9.2,4.5c-7.7,0-12.4-7.6-12.4-19.7c0-11.6,5.5-21.1,12.2-21.1c2.8,0,5.1,1.1,6.8,2.5
			l0.9-6.1c-1.4,0-2.6-0.1-3.7-0.2C214.2,12.4,212.9,12.3,210.9,12.3z"/>
		<path class="st1" d="M23.7,27.3l-1.5-0.8c0.4-0.3,1.5-1.2,2.5-2.1c2.4-2.4,3.4-5.2,3.4-8.3c0-7.1-5.8-12.4-13.5-12.4
			C12.1,3.7,9.1,4,5.4,4H4c0.1,2.8,0.3,10.6,0.3,21.8c0,11.7-0.2,26.9-0.3,32.9l-0.1,2.1h7.7c13,0,21.1-7.3,21.1-19.1
			C32.6,35.7,29.4,30.4,23.7,27.3z M8.5,23.9c0-5.2,0.1-10.1,0.2-14.7l0-0.8l0.8-0.3c1.4-0.5,3.1-0.7,5.1-0.7c4.3,0,9,3.3,9,8.7
			c0,4.8-4.3,8.6-9.2,8.6c-2.9,0-5.9,0.5-5.9,0.5L8.5,23.9z M12,56.8c-0.7,0-1.5-0.1-2.2-0.2l-1-0.1l0-1c-0.1-3.2-0.3-14.4-0.3-25.4
			l0-0.9l0.9-0.2c1.3-0.3,2.7-0.4,4.5-0.4c8.5,0.3,14.3,5.6,14.3,13.2C28.1,51,22,56.8,12,56.8z"/>
		<path class="st1" d="M69.8,60.8h4.5C74.2,57.3,74,46.7,74,34.9c0-7.9,0.1-14,0.2-17.7l0-1.1c2.3,0,7.9,0.2,9.6,0.3l-0.4-3.8
			l-10.7,0l-11.9,0l-0.4,3.8c1.7-0.1,7.5-0.3,9.6-0.3l0,1.1c0.1,3.7,0.2,9.8,0.2,17.7C70.1,46.7,69.9,57.3,69.8,60.8z"/>
		<path class="st1" d="M101,60.8h4.5c-0.1-3.5-0.3-14.2-0.3-25.9c0-7.9,0.1-14,0.2-17.7l0-1.1c2.3,0,7.9,0.2,9.6,0.3l-0.4-3.8
			l-10.7,0l-11.9,0l-0.4,3.8c1.7-0.1,7.5-0.3,9.6-0.3l0,1.1c0.1,3.7,0.2,9.8,0.2,17.7C101.3,46.7,101.1,57.4,101,60.8z"/>
		<path class="st1" d="M179.4,38.8l0.5-0.5c2.9-2.7,4.3-6.5,4.3-11.4c0-5.3-1.5-9.2-4.5-11.7c-2.5-2.1-5.9-3.1-10.3-3.1h0
			c-1.6,0-3.8,0.2-5.8,0.3c-1.5,0.1-2.8,0.2-3.5,0.2H160c0.1,2.6,0.3,9.3,0.3,20.2c0,11.9-0.2,24.2-0.3,28h4.5
			c-0.1-2.7-0.2-9.8-0.2-18l0-1.4l1.4,0.3c3.1,0.7,6.2,0.6,9-0.3l1.1-0.3l0.3,1.2c2.2,8.3,3.6,14.9,4.4,18.6h5.3
			c-1.2-4.1-3.6-12.2-6.1-21.3L179.4,38.8z M169.6,38.2c-1.6,0-3.2-0.3-4.7-0.7l-0.8-0.3l0-4.3c0-5.4,0-10.4,0.1-14.8l0-0.9l0.9-0.2
			c1.3-0.2,3.1-0.5,4.9-0.5c7.2,0,9.7,5.7,9.7,10.5C179.8,32.4,176.2,38.2,169.6,38.2z"/>
		<path class="st1" d="M291.5,34.9l-1.3-0.7l1.1-1.1c2.7-2.7,3.9-6.2,3.3-10.1c-0.9-6.3-6.2-10.4-13.3-10.4h0l-0.8,0
			c-0.9,0-2,0-3.1,0.1c-1.3,0-2.4,0.1-3.1,0.1h-2.5c0.1,2.6,0.3,9.3,0.3,20.2c0,11.9-0.2,24.2-0.3,28h4.1c1.1,0,2.3,0.1,3.5,0.3
			c1.4,0.1,2.7,0.2,3.8,0.2c8.7,0,15.3-6.1,15.3-14.2C298.5,41.8,295.9,37.3,291.5,34.9z M275.9,32.6c0-5.3,0-10.3,0.1-14.7l0-1
			l1.7-0.2c0.9-0.1,1.7-0.2,3.2-0.2c2.8,0,8.3,1.5,9.1,7v0c0.3,2.3-0.2,4.3-1.7,5.9c-2,2.2-5.6,3.6-11.2,4.2l-1.3,0.1L275.9,32.6z
			 M283.2,56.8c-2.9,0-4.3-0.3-6.2-0.8l-0.8-0.2l0-0.9c-0.1-4.1-0.1-9.5-0.2-15.3l0-0.8l0.8-0.3c1.3-0.5,3.5-1.1,6.5-1.1
			c6.6,0,10.8,3.8,10.8,9.7C294,53.5,288.5,56.8,283.2,56.8z"/>
	</g>
</g>
</svg>
