<svg id="Layer_1" data-name="Layer 1" xmlns="http://www.w3.org/2000/svg" viewBox="0 0 128 104"><defs><style>.cls-1{fill:#18374b;}</style></defs><title>Artboard 5</title><path class="cls-1" d="M56.46,29.36c-4,7-8.17,14.34-8.76,21.23v.08c-.05.67-.08,1.22-.08,1.75C47.61,60.88,53,68,60.29,69.82V80.11a11.5,11.5,0,0,0,1.2,4.5A20.86,20.86,0,0,1,62.39,87l.23.83h2.76l.24-.83a20.87,20.87,0,0,1,.89-2.39,11.5,11.5,0,0,0,1.2-4.5V69.82C75,68,80.39,60.88,80.39,52.41c0-.52,0-1.08-.08-1.76v-.09c-.59-6.87-4.74-14.16-8.76-21.21a85.16,85.16,0,0,1-6.33-12.58H62.79A85.15,85.15,0,0,1,56.46,29.36Zm9,50.75a9.52,9.52,0,0,1-1,3.61c-.14.32-.27.65-.41,1-.13-.33-.27-.66-.41-1a9.51,9.51,0,0,1-1-3.61V70.22c.47,0,.95.08,1.43.08s1,0,1.43-.08ZM65.92,45H62.08a21.13,21.13,0,0,0,.38-4.17V39.54a1.55,1.55,0,1,1,3.07,0v1.31A21.15,21.15,0,0,0,65.92,45Zm3.35,2.28V52H58.73V47.3Zm-3.84,7V67.94a12.84,12.84,0,0,1-2.85,0V54.28Zm4.13-23.8c3.89,6.83,7.92,13.9,8.47,20.28v.08c0,.61.07,1.11.07,1.56,0,7.19-4.42,13.24-10.4,15V54.28h3.84V45H68.26a17.83,17.83,0,0,1-.44-4.17V39.54a3.82,3.82,0,1,0-7.63,0v1.31A17.81,17.81,0,0,1,59.74,45H56.45v9.26h3.84V67.45c-6-1.81-10.4-7.86-10.4-15,0-.46,0-1,.07-1.53v-.12c.55-6.37,4.57-13.44,8.46-20.27A113.53,113.53,0,0,0,64,19.91,113.55,113.55,0,0,0,69.56,30.48Z"/><path class="cls-1" d="M113.07,50.44,65.56,2.93,64,1.37,62.44,2.93,14.93,50.44,13.37,52l1.56,1.56,47.52,47.51L64,102.63l1.56-1.56,47.52-47.51L114.63,52ZM64,99.52,16.48,52,64,4.48,111.52,52Z"/><path class="cls-1" d="M84,69.79h3.33a20.14,20.14,0,0,0,4-7.62A12.87,12.87,0,0,0,96.6,51.68c0-.36,0-.74-.05-1.15v-.08c-.33-3.89-3.07-8.52-6.45-12.36h0c-.38.73-.83,1.52-1.28,2.31-1.76,3.08-3.74,6.15-4.09,10v.09c0,.42,0,.78,0,1.14a12.9,12.9,0,0,0,4.55,9.9A17.7,17.7,0,0,1,84,69.79Zm3-18.1c0-.3,0-.61,0-1,.26-3,1.71-5.5,3.25-8.16l.19-.32c2.24,3.09,3.63,6.14,3.84,8.56,0,.34,0,.66,0,1A10.79,10.79,0,0,1,92,58.37,22.28,22.28,0,0,0,91.65,52h-2a19.94,19.94,0,0,1,.13,7A10.77,10.77,0,0,1,87,51.68Z"/><path class="cls-1" d="M38.77,61.58a12.9,12.9,0,0,0,4.55-9.9c0-.36,0-.73,0-1.14v-.09c-.34-3.9-2.33-7-4.09-10-.45-.79-.9-1.58-1.28-2.31h0c-3.37,3.84-6.11,8.48-6.45,12.36v.08c0,.41-.05.79-.05,1.15A12.87,12.87,0,0,0,36.7,62.17a20.13,20.13,0,0,0,4,7.62H44A17.7,17.7,0,0,1,38.77,61.58ZM38.31,52h-2A22.28,22.28,0,0,0,36,58.37a10.79,10.79,0,0,1-2.33-6.69c0-.3,0-.61,0-1,.21-2.42,1.6-5.48,3.84-8.56l.19.32c1.53,2.65,3,5.16,3.25,8.16,0,.43,0,.73,0,1A10.77,10.77,0,0,1,38.18,59,19.94,19.94,0,0,1,38.31,52Z"/></svg>