<svg id="Layer_1" data-name="Layer 1" xmlns="http://www.w3.org/2000/svg" viewBox="0 0 128 104"><defs><style>.cls-1{fill:#18374b;}</style></defs><title>Artboard 4</title><rect class="cls-1" x="85.03" y="39.65" width="17.46" height="2.2"/><rect class="cls-1" x="79.68" y="39.65" width="2.38" height="2.2"/><rect class="cls-1" x="85.03" y="46.31" width="17.46" height="2.2"/><rect class="cls-1" x="79.68" y="46.31" width="2.38" height="2.2"/><rect class="cls-1" x="85.03" y="52.96" width="17.46" height="2.2"/><rect class="cls-1" x="79.68" y="52.96" width="2.38" height="2.2"/><rect class="cls-1" x="85.03" y="59.62" width="17.46" height="2.2"/><rect class="cls-1" x="79.68" y="59.62" width="2.38" height="2.2"/><rect class="cls-1" x="85.03" y="66.27" width="17.46" height="2.2"/><rect class="cls-1" x="79.68" y="66.27" width="2.38" height="2.2"/><path class="cls-1" d="M114.19,26.8H103.31a6.11,6.11,0,0,0-5.81-4.26H85.8A6.11,6.11,0,0,0,80,26.8H69.11A4.11,4.11,0,0,0,65,30.9V88.06a4.11,4.11,0,0,0,4.1,4.1h45.08a4.11,4.11,0,0,0,4.1-4.1V30.9A4.11,4.11,0,0,0,114.19,26.8ZM85.8,24.75H97.49a3.9,3.9,0,0,1,3.79,3l0,.31a3.78,3.78,0,0,1,.06.57v.76H81.9v-.76a3.85,3.85,0,0,1,.06-.58l0-.3A3.9,3.9,0,0,1,85.8,24.75ZM79.7,29v2.61h23.89V29h5.48V83.52H74.23V29Zm36.38,59.06a1.9,1.9,0,0,1-1.9,1.9H69.11a1.9,1.9,0,0,1-1.9-1.9V30.9a1.9,1.9,0,0,1,1.9-1.9H72V85.72h39.24V29h2.92a1.9,1.9,0,0,1,1.9,1.9Z"/><path class="cls-1" d="M43.86,11.84,9.71,23.59V91.12H56.53V23.59H43.86Zm-2.2,3.09v8.67H17.39ZM11.91,25.79h15V88.92h-15Zm42.42,0V88.92H29.07V25.79H54.33Z"/></svg>