<?xml version="1.0" encoding="utf-8"?>
<!-- Generator: Adobe Illustrator 20.1.0, SVG Export Plug-In . SVG Version: 6.00 Build 0)  -->
<svg version="1.1" id="Layer_1" xmlns="http://www.w3.org/2000/svg" xmlns:xlink="http://www.w3.org/1999/xlink" x="0px" y="0px"
	 viewBox="0 0 27.5 27.5" style="enable-background:new 0 0 27.5 27.5;" xml:space="preserve">
<style type="text/css">
	.st0{fill:#FFFFFF;}
</style>
<g>
	<g>
		<path class="st0" d="M17.4,18H4.2L-0.6,5.6h22.8L17.4,18z M5.3,16.4h11.1l3.6-9.3H1.7L5.3,16.4z"/>
	</g>
	<g>
		<polygon class="st0" points="21.8,6.6 20.3,6.1 21.7,2.4 26.9,2.4 26.9,4 22.8,4 		"/>
	</g>
	<g>
		<path class="st0" d="M6.5,25.1c-1.5,0-2.8-1.2-2.8-2.8s1.2-2.8,2.8-2.8s2.8,1.2,2.8,2.8S8,25.1,6.5,25.1z M6.5,21.1
			c-0.7,0-1.2,0.5-1.2,1.2s0.5,1.2,1.2,1.2s1.2-0.5,1.2-1.2S7.2,21.1,6.5,21.1z"/>
	</g>
	<g>
		<path class="st0" d="M15.4,25.1c-1.5,0-2.8-1.2-2.8-2.8s1.2-2.8,2.8-2.8c1.5,0,2.8,1.2,2.8,2.8S16.9,25.1,15.4,25.1z M15.4,21.1
			c-0.7,0-1.2,0.5-1.2,1.2s0.5,1.2,1.2,1.2c0.7,0,1.2-0.5,1.2-1.2S16,21.1,15.4,21.1z"/>
	</g>
</g>
</svg>
