<?xml version="1.0" encoding="utf-8"?>
<!-- Generator: Adobe Illustrator 20.1.0, SVG Export Plug-In . SVG Version: 6.00 Build 0)  -->
<svg version="1.1" id="Layer_1" xmlns="http://www.w3.org/2000/svg" xmlns:xlink="http://www.w3.org/1999/xlink" x="0px" y="0px"
	 viewBox="0 0 28 28" style="enable-background:new 0 0 28 28;" xml:space="preserve">
<style type="text/css">
	.st0{fill:#FFFFFF;}
</style>
<g>
	<path class="st0" d="M8.1,26.5c-0.1-1.3-0.3-3.3,0.1-4.7c0.3-1.3,1.9-8.1,1.9-8.1s-0.5-1-0.5-2.4c0-2.3,1.3-4,3-4
		c1.4,0,2.1,1,2.1,2.3c0,1.4-0.9,3.5-1.4,5.4C12.8,16.7,14,18,15.6,18c2.9,0,5.1-3.1,5.1-7.5c0-3.9-2.8-6.6-6.8-6.6
		c-4.6,0-7.4,3.5-7.4,7.1c0,1.4,0.5,2.9,1.2,3.7c0.1,0.2,0.2,0.3,0.1,0.5c-0.1,0.5-0.4,1.6-0.5,1.8c-0.1,0.3-0.2,0.4-0.5,0.2
		c-2-0.9-3.3-3.9-3.3-6.3c0-5.1,3.7-9.9,10.8-9.9c5.7,0,10.1,4,10.1,9.4c0,5.6-3.5,10.1-8.5,10.1c-1.7,0-3.2-0.9-3.7-1.9
		c0,0-0.8,3.1-1,3.9c-0.4,1.4-1.4,3.2-2,4.3"/>
</g>
</svg>
