<?xml version="1.0" encoding="utf-8"?>
<!-- Generator: Adobe Illustrator 20.1.0, SVG Export Plug-In . SVG Version: 6.00 Build 0)  -->
<svg version="1.1" id="Layer_1" xmlns="http://www.w3.org/2000/svg" xmlns:xlink="http://www.w3.org/1999/xlink" x="0px" y="0px"
	 viewBox="0 0 35 35" style="enable-background:new 0 0 35 35;" xml:space="preserve">
<style type="text/css">
	.st0{fill:#19374B;}
</style>
<g>
	<g>
		<path class="st0" d="M13.4,25c-3,0-6-1.1-8.2-3.4c-2.2-2.2-3.4-5.1-3.4-8.2s1.2-6,3.4-8.2s5.1-3.4,8.2-3.4s6,1.2,8.2,3.4l0,0l0,0
			c2.2,2.2,3.4,5.1,3.4,8.2s-1.2,6-3.4,8.2C19.4,23.9,16.4,25,13.4,25z M13.4,3.7c-2.6,0-5,1-6.8,2.8c-3.8,3.8-3.8,9.9,0,13.7
			c3.8,3.8,9.9,3.8,13.7,0c1.8-1.8,2.8-4.3,2.8-6.8s-1-5-2.8-6.8l0,0C18.4,4.7,16,3.7,13.4,3.7z"/>
	</g>
	<g>
		
			<rect x="25.8" y="18.5" transform="matrix(0.7071 -0.7071 0.7071 0.7071 -11.0805 26.7525)" class="st0" width="2" height="16.5"/>
	</g>
	<g>
		<path class="st0" d="M8.6,18.2C6,15.5,6,11.2,8.6,8.6c1.6-1.6,4-2.3,6.2-1.8l-0.4,2C12.8,8.4,11.2,8.9,10,10
			c-1.9,1.9-1.9,4.9,0,6.8L8.6,18.2z"/>
	</g>
</g>
</svg>
