<?xml version="1.0" encoding="utf-8"?>
<!-- Generator: Adobe Illustrator 25.2.3, SVG Export Plug-In . SVG Version: 6.00 Build 0)  -->
<svg version="1.1" id="Layer_1" xmlns="http://www.w3.org/2000/svg" xmlns:xlink="http://www.w3.org/1999/xlink" x="0px" y="0px"
	 viewBox="0 0 540 176" style="enable-background:new 0 0 540 176;" xml:space="preserve">
<style type="text/css">
	.st0{fill:#D3B262;}
	.st1{fill:#18374B;}
	.st2{fill:#FFFFFF;}
	.st3{opacity:0.66;fill:#1F3749;}
</style>
<g>
	<path class="st2" d="M116.36,14.98l-22.65,0.05L92.28,28.8l2.18-0.13c0.06,0,6.11-0.36,13.85-0.53c0.12,6.11,0.24,15.26,0.24,26.71
		c0,23.01-0.5,43.54-0.51,43.75l-0.05,1.9h14.82l-0.05-1.9c-0.01-0.21-0.51-20.74-0.51-43.75c0-11.48,0.12-20.64,0.24-26.75
		c8.07,0.15,13.77,0.56,13.83,0.56l2.21,0.16l-1.44-13.8L116.36,14.98z M118.88,24.34l-0.04,1.84c-0.13,6.05-0.28,15.94-0.28,28.68
		c0,19,0.34,36.32,0.47,41.94h-7.21c0.12-5.62,0.47-22.94,0.47-41.94c0-12.72-0.15-22.6-0.28-28.65l-0.04-1.85
		c-3.32,0-12.76,0.36-15.53,0.49l0.64-6.11l19.3-0.05l17.41,0.05l0.63,6.09C131.71,24.68,122.55,24.34,118.88,24.34z"/>
	<path class="st2" d="M239.76,58.97l2.45,0.47l-1.47-14.55l-1.47-0.18c-7.73-0.94-17.38-0.5-25.73,1.16
		c0.04-6.4,0.12-12.38,0.24-17.83c16.03,0.29,23.01,1.03,23.08,1.04l2.28,0.25l-1.43-14.2l-38.4-0.11l0.08,1.94
		c0.01,0.11,0.48,11.5,0.42,34.49c-0.06,23.01-0.63,46.86-0.64,47.1l-0.05,1.9l40.49,0.12l1.51-14.19l-2.28,0.24
		c-0.07,0.01-7.13,0.72-25.12,0.91c-0.09-7.36-0.2-17.69-0.22-28.53C221.51,57.48,231.85,57.45,239.76,58.97z M211.24,55.66
		l-1.46,0.32l0,1.49c0.01,12.35,0.14,24.19,0.24,31.94l0.02,1.85l1.85-0.02c13.78-0.11,21.54-0.51,25.04-0.76l-0.68,6.35l-33.35-0.1
		c0.14-6.11,0.54-25.99,0.6-45.28c0.05-17.68-0.22-28.55-0.35-32.72l31.18,0.09l0.64,6.35c-3.39-0.26-10.7-0.7-22.99-0.89
		l-1.84-0.03l-0.04,1.84c-0.16,6.59-0.26,14.01-0.3,22.05l-0.01,2.35l2.29-0.53c7.93-1.84,17.45-2.48,25.26-1.74l0.67,6.67
		C229.53,53.66,219.1,53.93,211.24,55.66z"/>
	<path class="st2" d="M164.92,14.98l-20.74,0.05l-1.44,13.8l2.21-0.16c0.06,0,5.76-0.41,13.83-0.56c0.12,6.15,0.24,15.33,0.24,26.75
		c0,23.01-0.5,43.54-0.51,43.75l-0.05,1.9h14.82l-0.05-1.9c-0.01-0.21-0.51-20.74-0.51-43.75c0-11.46,0.12-20.61,0.24-26.71
		c7.74,0.17,13.79,0.53,13.85,0.53l2.18,0.13l-1.43-13.77L164.92,14.98z M169.34,24.36l-0.04,1.84c-0.13,6.05-0.28,15.94-0.28,28.68
		c0,19,0.34,36.32,0.47,41.94h-7.21c0.12-5.62,0.47-22.94,0.47-41.94c0-12.72-0.15-22.6-0.28-28.65l-0.04-1.85
		c-3.32,0-12.76,0.36-15.53,0.49l0.64-6.11l19.3-0.05l17.41,0.05l0.63,6.09C182.17,24.7,173.01,24.36,169.34,24.36z"/>
	<path class="st2" d="M21.2,44.44c-2.83,0.04-5.12,0.27-7.22,0.72l-1.47,0.32l0.01,1.51c0.07,17.91,0.39,36.06,0.49,41.2l0.03,1.56
		l1.54,0.24c1.27,0.2,2.46,0.3,3.64,0.3c16.08,0,26.07-9.34,26.07-24.39C44.29,53.55,35.05,44.93,21.2,44.44z M18.22,86.56
		c-0.5,0-1.01-0.02-1.53-0.06c-0.12-6.44-0.38-22.15-0.45-37.97c1.47-0.22,3.08-0.34,4.93-0.37c11.79,0.42,19.41,7.39,19.41,17.74
		C40.57,78.83,32.21,86.56,18.22,86.56z"/>
	<path class="st2" d="M274.14,24.89c-2.9,0-5.73,0.45-7.87,0.85l-1.49,0.28l-0.03,1.52c-0.14,7.15-0.21,15.22-0.21,23.98l0.01,6.99
		l1.29,0.41c2.46,0.79,5.09,1.21,7.6,1.21c10.66,0,16.42-9.39,16.42-18.23C289.86,34.05,285.74,24.89,274.14,24.89z M273.44,56.41
		c-1.7,0-3.47-0.23-5.18-0.66l-0.01-4.24c0-8.12,0.06-15.64,0.18-22.38c1.72-0.28,3.71-0.53,5.7-0.53c11.14,0,12,10.17,12,13.29
		C286.14,48.93,281.69,56.41,273.44,56.41z"/>
	<path class="st2" d="M36.93,24.31c0-8.67-7.58-14.03-14.6-14.03c-3.35,0-6.07,0.38-8.32,1.16l-1.22,0.42l-0.03,1.29
		c-0.15,7.43-0.24,15.45-0.26,23.83l-0.01,2.16c0,0,4.86-0.87,9.48-0.87C30,38.28,36.93,32.13,36.93,24.31z M16.45,14.59
		c1.63-0.4,3.57-0.6,5.88-0.6c5.23,0,10.88,3.94,10.88,10.32c0,5.23-4.7,10.26-11.24,10.26c-2.51,0-4.69,0.2-5.75,0.31
		C16.25,27.79,16.32,20.98,16.45,14.59z"/>
	<path class="st2" d="M41.17,40.57c5.31-5.31,6.78-11.04,6.78-16.26c0-13.33-10.66-23.44-24.91-23.76l-1.86-0.01
		c-1.78,0-4.21,0.13-6.79,0.26c-2.51,0.13-5.11,0.27-6.94,0.27H1.33L1.41,3c0.01,0.14,0.54,14.02,0.54,37.06
		c0,18.87-0.36,43.54-0.52,53.19L1,100.58h16.43c23.01,0,37.87-13.62,37.87-34.69C55.31,55.64,50.07,46.35,41.17,40.57z
		 M17.44,96.86H4.94l0.2-3.48c0.16-9.74,0.52-34.43,0.52-53.33c0-18.19-0.33-30.69-0.47-35.28h2.26c5.96,0,10.8-0.53,14.88-0.53
		c12.49,0,21.9,8.62,21.9,20.05c0,4.92-1.65,9.59-5.47,13.41c-1.54,1.54-3.34,2.96-4.02,3.45l2.43,1.33
		c9.17,5.02,14.42,13.55,14.42,23.38C51.59,84.99,38.51,96.86,17.44,96.86z"/>
	<path class="st2" d="M82.52,15.08h-14.9l0.09,1.94c0,0.11,0.51,11.51,0.51,34.49c0,23.01-0.51,46.87-0.51,47.1l-0.04,1.9h14.81
		l-0.04-1.9c0-0.24-0.51-24.09-0.51-47.1c0-22.98,0.5-34.38,0.51-34.49L82.52,15.08z M71.46,96.8c0.12-6.11,0.47-25.99,0.47-45.29
		c0-17.68-0.3-28.55-0.44-32.71h7.16c-0.14,4.16-0.44,15.03-0.44,32.71c0,19.29,0.35,39.18,0.47,45.29H71.46z"/>
	<path class="st2" d="M510.51,87.52c-0.09-7.38-0.2-17.71-0.21-28.53c8.01-1.51,18.35-1.54,26.25-0.02l2.45,0.47l-1.47-14.55
		l-1.47-0.18c-7.73-0.94-17.38-0.5-25.73,1.16c0.04-6.4,0.12-12.38,0.24-17.83c16.03,0.29,23.01,1.03,23.08,1.04l2.28,0.25
		l-1.43-14.2l-38.4-0.11l0.08,1.94c0.01,0.11,0.48,11.51,0.41,34.49c-0.06,23.01-0.63,46.86-0.64,47.1l-0.05,1.9l40.49,0.12
		l1.51-14.19l-2.28,0.24C535.55,86.62,528.49,87.34,510.51,87.52z M533.06,96.84l-33.35-0.1c0.13-6.11,0.54-25.99,0.59-45.28
		c0.05-17.68-0.22-28.55-0.35-32.72l31.18,0.09l0.64,6.35c-3.39-0.26-10.7-0.7-22.99-0.89l-1.84-0.03l-0.04,1.84
		c-0.16,6.59-0.26,14.01-0.3,22.05l-0.01,2.35l2.29-0.53c7.93-1.84,17.45-2.48,25.26-1.74l0.67,6.67
		c-8.48-1.25-18.91-0.98-26.77,0.75l-1.46,0.32l0,1.49c0.01,12.33,0.13,24.18,0.24,31.94l0.02,1.85l1.85-0.02
		c13.78-0.11,21.54-0.51,25.04-0.76L533.06,96.84z"/>
	<path class="st2" d="M465.75,46.1c2.38-2.66,3.31-5.89,2.77-9.62v0c-1.31-8.97-10.24-11.34-14.78-11.34
		c-2.39,0-3.59,0.11-5.12,0.26l-2.82,0.25l-0.03,1.67c-0.14,7.11-0.22,15.09-0.22,23.73l0,2.08l2.06-0.23
		C456.75,51.88,462.51,49.72,465.75,46.1z M449.46,29.05c1.26-0.12,2.32-0.2,4.28-0.2c0.1,0,9.92,0.09,11.1,8.16v0
		c0.39,2.65-0.2,4.75-1.86,6.6c-1.52,1.7-4.59,4.04-13.71,5.32C449.29,41.79,449.35,35.11,449.46,29.05z"/>
	<path class="st2" d="M457.33,58.84c-4.91,0-8.34,1.01-10.5,1.78l-1.24,0.44l0.01,1.32c0.05,9.39,0.17,18.22,0.27,24.83l0.02,1.38
		l1.32,0.38c3.24,0.93,5.47,1.35,10.12,1.35c8.72,0,17.55-5.39,17.55-15.7C474.87,65.03,467.98,58.84,457.33,58.84z M457.33,86.6
		c-3.78,0-5.74-0.31-7.77-0.84c-0.09-6.09-0.19-13.83-0.24-22.05c1.64-0.5,4.36-1.15,8.01-1.15c8.66,0,13.83,4.51,13.83,12.06
		C471.16,82.48,464.2,86.6,457.33,86.6z"/>
	<path class="st2" d="M474.58,52.72c4.1-4.96,5.81-11.21,4.84-17.83c-1.71-11.72-10.92-19.44-23.66-20.03l-1.58-0.05
		c-1.62,0-4.05,0.08-6.34,0.15c-1.98,0.06-3.85,0.12-4.95,0.12h-7.92l0.09,1.94c0,0.11,0.51,11.51,0.51,34.49
		c0,23.01-0.51,46.87-0.51,47.1l-0.04,1.9h10.38c1.68,0.06,3.56,0.23,5.38,0.4c2.25,0.2,4.57,0.42,6.54,0.42c0.01,0,0.01,0,0.01,0
		c16.29,0,28.57-11.48,28.57-26.71C485.89,65.38,481.8,57.52,474.58,52.72z M457.33,97.61c-1.81,0-3.94-0.2-6.21-0.4
		c-1.88-0.17-3.82-0.35-5.67-0.41h-6.65c0.12-6.11,0.47-25.99,0.47-45.29c0-17.68-0.3-28.55-0.44-32.71h4.04
		c1.12,0,3.04-0.06,5.07-0.12c1.71-0.05,3.51-0.11,4.97-0.13l1.26,0h0.01c11.6,0,20.06,6.63,21.56,16.88
		c0.92,6.32-0.93,11.99-5.37,16.4l-1.76,1.76l2.18,1.19c7.23,3.95,11.38,11.18,11.38,19.84C482.17,87.72,471.49,97.61,457.33,97.61z
		"/>
	<path class="st2" d="M358.95,78.61l-0.67-2.42c-1.79,2.45-3.86,4.7-6.09,6.53c-1.82,1.66-4.01,2.91-6.18,3.66
		c-0.06,0.02-0.11,0.04-0.17,0.06c-0.33,0.11-0.65,0.21-0.98,0.29c-0.24,0.07-0.48,0.12-0.72,0.18c-0.28,0.06-0.57,0.11-0.84,0.16
		c-0.16,0.02-0.33,0.04-0.49,0.06c-0.41,0.05-0.82,0.08-1.21,0.08c-10.12,0-16.41-10.82-16.41-28.24c0-17.93,8.47-30.43,16.08-30.43
		c4.89,0,8.96,2.35,12.91,7.85l0.75-0.14l3.15-21.01l-2.2,0.04c-3.22,0.06-5.38-0.15-7.68-0.37c-2.22-0.22-4.51-0.44-7.86-0.44
		c-16.4,0-29.25,19.54-29.25,44.49c0,25.74,11.79,42.36,30.03,42.36c8.9,0,17.53-5.23,20.89-8.53l0.79-0.77l-1.33-4.68
		C360.65,84.64,359.79,81.61,358.95,78.61z M341.09,97.61c-15.98,0-26.31-15.17-26.31-38.65c0-22.86,11.22-40.77,25.54-40.77
		c3.17,0,5.38,0.21,7.5,0.42c1.78,0.17,3.6,0.35,5.92,0.39l-1.49,9.91c-2.69-2.27-6.46-4.08-11-4.08
		c-10.91,0-19.79,15.32-19.79,34.14c0,19.71,7.71,31.95,20.13,31.95c4.83,0,11.02-2.67,14.9-7.32c0.47,1.65,0.93,3.27,1.36,4.78
		l0.72,2.51C355.04,93.89,347.9,97.61,341.09,97.61z"/>
	<path class="st2" d="M406.13,17c0.01,0.16,0.51,15.94,0.51,38.93l-0.01,6.39c0,20.85-3.75,24.7-11.09,24.78
		c-7.38-0.08-11.13-3.94-11.13-24.96l-0.01-6.21c0-23,0.5-38.78,0.51-38.93l0.06-1.92h-14.85l0.06,1.91c0.01,0.17,0.51,17,0.51,40
		l-0.01,6.39c0,25.9,6.68,37.02,22.97,37.88l2.1,0.06l1.86-0.01v-0.06c16.13-0.95,22.75-12.1,22.75-38.04L420.35,57
		c0-23,0.5-39.83,0.51-40l0.06-1.91h-14.85L406.13,17z M417.09,18.8c-0.13,5.05-0.45,19.62-0.45,38.2l0.01,6.39
		c0,28.2-8.36,34.07-20.92,34.22l-0.17,0l-0.24,0c-12.56-0.15-20.92-6.02-20.92-34.38l0.01-6.23c0-18.58-0.33-33.15-0.46-38.2h7.19
		c-0.13,4.88-0.45,18.7-0.45,37.14l0.01,6.39c0,17.95,2.42,28.37,14.84,28.5c12.38-0.13,14.8-10.55,14.8-28.6l0.01-6.29
		c0-18.44-0.32-32.25-0.45-37.14H417.09z"/>
	<path class="st2" d="M293.5,62.33c4.89-5.03,7.37-11.9,7.37-20.43c0-9.68-2.89-17.02-8.6-21.82c-4.78-4.01-11.01-5.95-19.02-5.83
		c-2.67,0-6.37,0.27-9.64,0.51c-2.26,0.17-4.4,0.33-5.43,0.33h-4.24l0.09,1.94c0,0.11,0.51,11.5,0.51,34.49
		c0,23.01-0.5,46.87-0.51,47.1l-0.04,1.9h14.81l-0.04-1.9c0-0.13-0.27-12.96-0.42-28.76c4.21,0.63,8.42,0.47,12.35-0.46
		c3.55,13.67,5.8,24.36,6.85,29.63l0.3,1.49h16.65l-0.72-2.4C302.14,92.73,297.93,78.61,293.5,62.33z M290.89,96.8
		c-1.21-5.97-3.54-16.74-7.07-30.16l-0.49-1.87l-1.85,0.56c-4.55,1.39-9.61,1.55-14.62,0.48l-2.26-0.48l0.02,2.32
		c0.11,13.24,0.32,24.76,0.4,29.16h-7.22c0.12-6.11,0.47-25.99,0.47-45.29c0-17.68-0.3-28.55-0.44-32.71h0.36
		c1.16,0,3.26-0.15,5.69-0.33c3.2-0.24,6.83-0.5,9.39-0.5h0.01c7.12-0.07,12.55,1.55,16.61,4.96c4.83,4.06,7.27,10.44,7.27,18.97
		c0,7.92-2.36,14.15-7.01,18.52l-0.81,0.76l0.29,1.08c4,14.74,7.86,27.84,9.87,34.54H290.89z"/>
	<path class="st2" d="M252.13,148.17l6.04,1.61l0.68-2.22C257.37,147.94,253.98,148.17,252.13,148.17z"/>
	<path class="st2" d="M225.83,151.71l-6.04-1.61l-0.68,2.22C220.6,151.93,223.98,151.71,225.83,151.71z"/>
	<path class="st2" d="M258.69,148.12c0,0-9.54,0.1-18.41,0.14l-2.82,3.78c9.09,0.04,19.97,0.15,19.97,0.15L258.69,148.12z"/>
	<path class="st2" d="M220.54,147.69l-1.27,4.07c0,0,9.63-0.1,18.54-0.14l2.82-3.78C231.52,147.8,220.54,147.69,220.54,147.69z"/>
	<path class="st2" d="M136.79,147.79c2.64-2.2,4.15-5.51,4.15-9.7c0-7.2-5.66-12.03-14.09-12.03h-24.18
		c1.31,0.41,1.79,2.89,1.84,4.52c0.12,5.54,0.14,12.96,0.11,20.18c0.03,7.22,0.02,14.64-0.11,20.18c-0.05,1.63-0.54,4.12-1.84,4.52
		h28.25c7.55,0,13.93-6.7,13.93-14.63C144.85,154.85,141.59,149.99,136.79,147.79z M127.11,130.39c5.66,0,8.91,3.31,8.91,7.69
		c0,2.43-0.58,8.42-8.42,8.42h-15.97h-2.3c-0.01-5.89,0.02-11.63,0.12-16.11H127.11z M131.1,170.83h-21.65
		c-0.12-5.51-0.13-12.86-0.1-20.01h21.75c5.06,0,8.83,4.57,8.83,10.01C139.93,165.42,136.42,170.83,131.1,170.83z"/>
	<path class="st2" d="M253.04,171.15h-26.92c4.07-5.59,9.87-13.33,13.98-18.76c4.88-6.56,12.29-16.38,16.45-21.64
		c-0.45-1.38-1.48-4.51-1.54-4.7h-33.29l-0.99,5.8c0.82-0.81,3.09-1.45,4.86-1.49h25.02c-4.08,5.62-10.07,13.61-14.29,19.19
		c-4.94,6.64-12.48,16.64-16.61,21.84c0.45,1.34,1.35,4.06,1.35,4.07h35.85v0l0.99-5.8C257.07,170.47,254.8,171.11,253.04,171.15z"
		/>
	<path class="st2" d="M380,175.46c-0.99-0.31-2.88-2.55-3.65-4.73c-2.13-6.39-4.3-13.52-6.54-20.49c-1.89-5.73-4.12-12.6-5.86-18.2
		c-0.94-3.18,0.14-5.26,1.1-5.99H345.8c0.97,0.73,2.16,2.85,1.14,6.12c-1.78,5.56-4.05,12.36-5.98,18.05
		c-2.29,6.94-4.85,14.05-7.19,20.41c-0.75,2.09-2.56,4.51-3.56,4.82h9.31c-0.62-0.54-1.4-2.06-0.7-4.32
		c1.32-4.03,2.8-8.29,4.28-12.59h24.32c1.33,4.27,2.6,8.5,3.77,12.5c0.66,2.28,0.02,3.85-0.6,4.4H380z M344.59,154.25
		c0.29-0.84,0.58-1.69,0.86-2.52c2.24-6.81,5.07-15.2,7.16-21.08h5.67c2.04,5.89,4.77,14.26,6.95,21.06
		c0.28,0.84,0.55,1.69,0.83,2.54H344.59z"/>
	<path class="st2" d="M320.98,175.46c-0.99-0.31-2.88-2.55-3.65-4.73c-2.13-6.39-4.3-13.52-6.54-20.49
		c-1.89-5.73-4.12-12.6-5.86-18.2c-0.94-3.18,0.14-5.26,1.1-5.99h-19.25c0.97,0.73,2.16,2.85,1.14,6.12
		c-1.78,5.56-4.05,12.36-5.98,18.05c-2.29,6.94-4.85,14.05-7.19,20.41c-0.75,2.09-2.56,4.51-3.56,4.82h9.31
		c-0.62-0.54-1.4-2.06-0.7-4.32c1.32-4.03,2.8-8.29,4.28-12.59h24.32c1.33,4.27,2.6,8.5,3.77,12.5c0.66,2.28,0.02,3.85-0.6,4.4
		H320.98z M285.57,154.25c0.29-0.84,0.58-1.69,0.86-2.52c2.24-6.81,5.07-15.2,7.16-21.08h5.67c2.04,5.89,4.77,14.26,6.95,21.06
		c0.28,0.84,0.55,1.69,0.83,2.54H285.57z"/>
	<path class="st2" d="M205.58,175.46c-0.99-0.31-2.88-2.55-3.65-4.73c-2.13-6.39-4.3-13.52-6.54-20.49
		c-1.89-5.73-4.12-12.6-5.86-18.2c-0.94-3.18,0.14-5.26,1.1-5.99h-19.25c0.97,0.73,2.16,2.85,1.14,6.12
		c-1.78,5.56-4.05,12.36-5.98,18.05c-2.29,6.94-4.85,14.05-7.19,20.41c-0.75,2.09-2.56,4.51-3.56,4.82h9.31
		c-0.62-0.54-1.4-2.06-0.7-4.32c1.32-4.03,2.8-8.29,4.28-12.59H193c1.33,4.27,2.6,8.5,3.77,12.5c0.66,2.28,0.02,3.85-0.6,4.4H205.58
		z M170.17,154.25c0.29-0.84,0.58-1.69,0.86-2.52c2.24-6.81,5.07-15.2,7.16-21.08h5.67c2.04,5.89,4.77,14.26,6.95,21.06
		c0.28,0.84,0.55,1.69,0.83,2.54H170.17z"/>
	<path class="st2" d="M433.33,169.71l0,0.02c-1.23-3.64-2.53-7.58-3.79-11.46c-0.68-2.02-1.35-4.05-2.02-6.05
		c3.45-2.26,5.75-6.33,5.75-12.57c0-9.36-6.54-13.59-14.75-13.59h-25.54c1.31,0.41,1.79,2.89,1.84,4.52
		c0.12,5.54,0.14,12.96,0.11,20.18c0.03,7.22,0.02,14.64-0.11,20.18c-0.05,1.63-0.54,4.12-1.84,4.53h8.63
		c-1.31-0.41-1.79-2.89-1.84-4.53c-0.1-4.6-0.13-10.51-0.12-16.52h20.33l0-0.02c1.1-0.03,2.16-0.15,3.18-0.38
		c0.63,1.9,1.26,3.82,1.89,5.74c1.31,3.92,2.63,7.89,3.83,11.58c0.55,1.71,0.49,3.78-0.61,4.12h9.07
		C436.02,175.05,434.11,172.05,433.33,169.71z M399.66,150.11c-0.03-6.99-0.01-14.1,0.11-19.47h19.37c5.77,0,9.39,3.03,9.39,9.48
		c0,6.46-3.08,9.99-10.01,9.99H399.66z"/>
</g>
</svg>
