<?xml version="1.0" encoding="utf-8"?>
<!-- Generator: Adobe Illustrator 20.1.0, SVG Export Plug-In . SVG Version: 6.00 Build 0)  -->
<svg version="1.1" id="Layer_1" xmlns="http://www.w3.org/2000/svg" xmlns:xlink="http://www.w3.org/1999/xlink" x="0px" y="0px"
	 viewBox="0 0 95 95" style="enable-background:new 0 0 95 95;" xml:space="preserve">
<style type="text/css">
	.st0{fill:#D4B263;}
	.st1{fill:#FFFFFF;}
</style>
<g>
	<g>
		<path class="st0" d="M61.9,46.3L61.9,46.3c-0.5-6.1-4.2-12.6-7.7-18.8c-2.2-3.9-4.4-7.7-5.6-11.1h-2.1c-1.2,3.4-3.3,7.2-5.6,11.1
			c-3.5,6.2-7.2,12.7-7.7,18.7l0,0.1c0,0.6-0.1,1.1-0.1,1.5c0,8.7,6.5,15.8,14.5,15.8c8,0,14.5-7.1,14.5-15.8
			C62,47.4,61.9,46.9,61.9,46.3z M47.5,61.6c-6.9,0-12.4-6.2-12.4-13.8c0-0.4,0-0.8,0.1-1.3l0-0.1c0.5-5.6,4-11.9,7.5-17.9
			c1.9-3.2,3.6-6.4,4.9-9.3c1.3,3,3.1,6.1,4.9,9.3c3.4,6,7,12.3,7.5,17.9l0,0.1c0,0.5,0.1,1,0.1,1.4C60,55.5,54.4,61.6,47.5,61.6z"
			/>
		<g>
			<path class="st1" d="M47.5,5.6l41.9,41.9L47.5,89.4L5.6,47.5L47.5,5.6 M47.5,2.8l-1.4,1.4L4.2,46.1l-1.4,1.4l1.4,1.4l41.9,41.9
				l1.4,1.4l1.4-1.4l41.9-41.9l1.4-1.4l-1.4-1.4L48.9,4.2L47.5,2.8L47.5,2.8z"/>
		</g>
	</g>
	<g>
		<path class="st1" d="M54.2,41.3h-2.9c-0.2-1-0.4-2.3-0.4-3.7v-1.2c0-2-1.5-3.6-3.4-3.6c-1.9,0-3.4,1.6-3.4,3.6v1.2
			c0,1.4-0.1,2.7-0.4,3.7h-2.9v8.2h3.4v22.8c0,1.5,0.5,2.7,1.1,4c0.3,0.7,0.6,1.4,0.8,2.1l0.2,0.7h2.4l0.2-0.7
			c0.2-0.7,0.5-1.4,0.8-2.1c0.5-1.2,1.1-2.5,1.1-4V49.5h3.4V41.3z M46.1,37.7v-1.2c0-0.9,0.6-1.6,1.4-1.6c0.7,0,1.4,0.7,1.4,1.6v1.2
			c0,1.4,0.1,2.6,0.3,3.7h-3.4C46,40.3,46.1,39,46.1,37.7z M48.8,72.3c0,1-0.4,2-0.9,3.2c-0.1,0.3-0.2,0.6-0.4,0.9
			c-0.1-0.3-0.2-0.6-0.4-0.9c-0.5-1.1-0.9-2.1-0.9-3.2V49.5h2.5V72.3z M52.1,47.5h-9.3v-4.1h9.3V47.5z"/>
		<path class="st1" d="M76.3,47.2c0-0.3,0-0.7,0-1l0-0.1c-0.3-3.4-2.7-7.5-5.7-10.9l0,0c-0.3,0.6-0.7,1.3-1.1,2
			c-1.5,2.7-3.3,5.4-3.6,8.9l0,0.1c0,0.4,0,0.7,0,1c0,3.5,1.6,6.7,4,8.7c-0.9,2.8-2.5,5.4-4.6,7.2h2.9c1.6-1.9,2.8-4.2,3.5-6.7
			C74.4,54.5,76.3,51.1,76.3,47.2z M71.9,47.5h-1.7c0.4,2.1,0.4,4.2,0.1,6.2c-1.6-1.7-2.5-4-2.5-6.5c0-0.3,0-0.5,0-0.9
			c0.2-2.6,1.5-4.9,2.9-7.2l0.2-0.3c2,2.7,3.2,5.4,3.4,7.6c0,0.3,0,0.6,0,0.8c0,2.2-0.8,4.3-2.1,5.9C72.4,51.3,72.3,49.4,71.9,47.5z
			"/>
		<path class="st1" d="M29.8,63.2c-2.2-1.9-3.7-4.4-4.6-7.2c2.4-2.1,4-5.2,4-8.7c0-0.3,0-0.6,0-1l0-0.1c-0.3-3.4-2.1-6.1-3.6-8.9
			c-0.4-0.7-0.8-1.4-1.1-2l0,0c-3,3.4-5.4,7.5-5.7,10.9l0,0.1c0,0.4,0,0.7,0,1c0,3.8,1.9,7.2,4.7,9.3c0.7,2.5,1.9,4.8,3.5,6.7H29.8z
			 M20.7,47.2c0-0.3,0-0.5,0-0.8c0.2-2.1,1.4-4.8,3.4-7.6l0.2,0.3c1.4,2.3,2.6,4.6,2.9,7.2c0,0.4,0,0.6,0,0.9c0,2.4-0.9,4.8-2.5,6.5
			c-0.3-2-0.3-4.1,0.1-6.2h-1.7c-0.4,1.9-0.5,3.8-0.3,5.6C21.5,51.5,20.7,49.4,20.7,47.2z"/>
	</g>
</g>
</svg>
