<?xml version="1.0" encoding="utf-8"?>
<!-- Generator: Adobe Illustrator 20.1.0, SVG Export Plug-In . SVG Version: 6.00 Build 0)  -->
<svg version="1.1" id="Layer_1" xmlns="http://www.w3.org/2000/svg" xmlns:xlink="http://www.w3.org/1999/xlink" x="0px" y="0px"
	 viewBox="0 0 675 495" style="enable-background:new 0 0 675 495;" xml:space="preserve">
<style type="text/css">
	.st0{fill:#D4B263;}
	.st1{fill:#FFFFFF;}
</style>
<g>
	<g>
		<g>
			<path class="st0" d="M395.4,386.1h-4.3l0.1,0.2l-9,26.6h4.1l1.6-4.8h10.7l1.6,4.8h4.2l-9.1-26.6L395.4,386.1z M397.4,404.5h-8.3
				l4.1-12.2L397.4,404.5z"/>
			<path class="st0" d="M316.8,409.2c-4.3,0-8.7-3-8.7-9.7c0-5.4,3.8-9.7,8.5-9.7c2.2,0,4.3,1,6,2.8l2.8-2.7c-2.5-2.6-5.6-4-8.9-4
				c-6.9,0-12.5,6.1-12.5,13.7c0,7.9,5.3,13.7,12.6,13.7c3.4,0,6.7-1.4,9.1-3.9l-2.9-2.7C321.4,408.2,319.1,409.2,316.8,409.2z"/>
			<path class="st0" d="M206.6,385.3c-5.7,0-11.9,5.2-11.9,13.7c0,8.4,6.2,13.6,11.9,13.6c5.7,0,11.9-5.2,11.9-13.6
				C218.5,390.6,212.4,385.3,206.6,385.3z M206.6,408.7c-3.8,0-8-3.7-8-9.7c0-6,4.1-9.7,8-9.7c3.8,0,8,3.7,8,9.7
				C214.6,405,210.5,408.7,206.6,408.7z"/>
			<polygon class="st0" points="166.2,385.6 162.2,385.6 162.2,412.4 177.8,412.4 177.8,408.8 166.2,408.8 			"/>
			<polygon class="st0" points="264.5,385.6 259.8,405.8 254.1,385.6 249.9,385.6 244.2,405.8 239.5,385.6 235.5,385.6 241.7,412.9 
				246.3,412.9 252,392.7 257.7,412.9 262.2,412.9 268.5,385.6 			"/>
			<path class="st0" d="M133.2,396.8c-4.8-0.7-6.2-1.3-6.2-3.9c0-1.3,1.2-3.7,5.8-3.7c2,0,4.5,0.9,5.8,2.1l2.7-2.9
				c-2-1.9-5.5-3.2-8.5-3.2c-7.2,0-9.8,4.6-9.8,7.6c0,6.4,5.5,7.2,9.6,7.8c4.9,0.7,6.4,1.3,6.4,4.1c0,2.4-2.4,3.9-6.3,3.9
				c-3.6,0-6.4-2.2-7.8-3.5l-2.7,2.8c1.8,1.7,5.6,4.6,10.5,4.6c7.6,0,10.3-4.2,10.3-7.8C143,398.3,137.4,397.4,133.2,396.8z"/>
			<polygon class="st0" points="496.4,412.8 511.9,412.8 511.9,409.3 500.3,409.3 500.3,402.3 510.8,402.3 510.8,398.7 500.3,398.7 
				500.3,389.7 511.9,389.7 511.9,386.1 496.4,386.1 			"/>
			<path class="st0" d="M356.4,404.2l3.7,8.7h4.3l-4.4-10.3c2.4-1.8,3.7-4.5,3.7-7.1c0-4.3-2.9-9.3-11-9.3h-6.4v0.1h-1v26.7h3.9
				v-8.5h5C355,404.4,355.7,404.3,356.4,404.2z M349.3,390h3.5c6.4,0,7,3.8,7,5.4c0,2.4-2.1,5.1-5.5,5.1h-5V390z"/>
			<polygon class="st0" points="458.6,389.7 466,389.7 466,412.9 469.9,412.9 469.9,389.7 477.4,389.7 477.4,386.1 458.6,386.1 			
				"/>
			<path class="st0" d="M540.5,386.1L540.5,386.1l-8.6,0v26.7h8.2l0.1,0c3.5,0,6.6-1,8.9-3.4c2.4-2.5,3.6-5.9,3.6-10
				c0-3.6-1.2-7-3.5-9.6C547,387.3,543.9,386.2,540.5,386.1z M540.3,409.3h-4.4v-19.7h4.6c4.7,0,8.4,4.4,8.4,9.8
				C548.9,405.3,545.4,409.3,540.3,409.3z"/>
			<polygon class="st0" points="424.7,412.9 428.6,412.9 428.6,401.2 439.6,401.2 439.6,397.6 428.6,397.6 428.6,389.7 440.7,389.7 
				440.7,386.1 424.7,386.1 			"/>
		</g>
		<g>
			<path class="st0" d="M372.1,106.6l0-0.2c-1.2-14.6-10.1-30-18.6-45C348.1,52,343,43,340.1,34.8h-5.1c-2.9,8.2-8,17.2-13.4,26.7
				c-8.5,14.9-17.3,30.4-18.6,45l0,0.2c-0.1,1.4-0.2,2.6-0.2,3.7c0,20.9,15.6,37.9,34.8,37.9c19.2,0,34.8-17,34.8-37.9
				C372.3,109.2,372.2,108,372.1,106.6z M337.5,143.4c-16.5,0-29.9-14.9-29.9-33.1c0-1,0-2,0.1-3.2l0-0.3c1.2-13.5,9.7-28.5,17.9-43
				c4.4-7.8,8.7-15.3,11.8-22.4c3.1,7.1,7.3,14.6,11.8,22.4c8.3,14.5,16.8,29.5,18,43l0,0.2c0.1,1.3,0.2,2.3,0.2,3.3
				C367.4,128.6,354,143.4,337.5,143.4z"/>
			<g>
				<path class="st1" d="M337.5,8.7l100.8,100.8L337.5,210.2L236.7,109.5L337.5,8.7 M337.5,2.1l-3.3,3.3L233.4,106.2l-3.3,3.3
					l3.3,3.3l100.8,100.8l3.3,3.3l3.3-3.3l100.8-100.8l3.3-3.3l-3.3-3.3L340.8,5.4L337.5,2.1L337.5,2.1z"/>
			</g>
		</g>
		<g>
			<path class="st0" d="M103.9,353.8H85.4l0.1-2.4c0-0.3,0.6-30,0.6-58.7c0-28.6-0.6-42.8-0.6-43l-0.1-2.4h18.6l-0.1,2.4
				c0,0.1-0.6,14.3-0.6,43c0,28.7,0.6,58.4,0.6,58.7L103.9,353.8z"/>
			<path class="st0" d="M494.2,354.8l-2.6-0.1c-20.3-1.1-28.6-14.9-28.6-47.2l0-8c0-28.7-0.6-49.6-0.6-49.8l-0.1-2.4h18.5l-0.1,2.4
				c0,0.2-0.6,19.9-0.6,48.5l0,7.7c0,26.2,4.7,31,13.9,31.1c9.1-0.1,13.8-4.9,13.8-30.9l0-8c0-28.7-0.6-48.3-0.6-48.5l-0.1-2.4h18.5
				l-0.1,2.4c0,0.2-0.6,21.2-0.6,49.8l0,7.7c0,32.3-8.3,46.2-28.3,47.4v0.1L494.2,354.8z"/>
			<path class="st0" d="M379.6,350.8c-2-6.7-7.3-24.3-12.8-44.6c6.1-6.3,9.2-14.8,9.2-25.5c0-12.1-3.6-21.2-10.7-27.2
				c-5.9-5-13.7-7.4-23.7-7.3c-3.3,0-7.9,0.3-12,0.6c-2.8,0.2-5.5,0.4-6.8,0.4h-5.3l0.1,2.4c0,0.1,0.6,14.3,0.6,43
				c0,28.7-0.6,58.4-0.6,58.7l-0.1,2.4H336l-0.1-2.4c0-0.2-0.3-16.1-0.5-35.8c5.3,0.8,10.5,0.6,15.4-0.6c4.4,17,7.2,30.3,8.5,36.9
				l0.4,1.9h20.7L379.6,350.8z M341.8,298.9c-2.1,0-4.3-0.3-6.5-0.8l0-5.3c0-10.1,0.1-19.5,0.2-27.9c2.1-0.4,4.6-0.7,7.1-0.7
				c13.9,0,15,12.7,15,16.6C357.6,289.5,352.1,298.9,341.8,298.9z"/>
			<path class="st0" d="M592.4,294.3c5.1-6.2,7.2-14,6-22.2c-2.1-14.6-13.6-24.2-29.5-25l-2-0.1c-2,0-5,0.1-7.9,0.2
				c-2.5,0.1-4.8,0.2-6.2,0.2H543l0.1,2.4c0,0.1,0.6,14.3,0.6,43c0,28.7-0.6,58.4-0.6,58.7l-0.1,2.4H556c2.1,0.1,4.4,0.3,6.7,0.5
				c2.8,0.3,5.7,0.5,8.1,0.5h0c20.3,0,35.6-14.3,35.6-33.3C606.5,310,601.4,300.2,592.4,294.3z M561.1,264.8
				c1.6-0.1,2.9-0.2,5.3-0.2c0.1,0,12.4,0.1,13.8,10.2v0c0.5,3.3-0.3,5.9-2.3,8.2c-1.9,2.1-5.7,5-17.1,6.6
				C560.9,280.6,561,272.3,561.1,264.8z M570.9,336.5c-4.7,0-7.2-0.4-9.7-1c-0.1-7.6-0.2-17.2-0.3-27.5c2-0.6,5.4-1.4,10-1.4
				c10.8,0,17.2,5.6,17.2,15C588.1,331.3,579.5,336.5,570.9,336.5z"/>
			<path class="st0" d="M669.4,353.9l-50.5-0.1l0.1-2.4c0-0.3,0.7-30,0.8-58.7c0.1-28.6-0.5-42.8-0.5-43l-0.1-2.4l47.8,0.1l1.8,17.7
				l-2.8-0.3c-0.1,0-8.8-0.9-28.8-1.3c-0.1,6.8-0.2,14.2-0.3,22.2c10.4-2.1,22.4-2.6,32.1-1.4l1.8,0.2l1.8,18.1l-3.1-0.6
				c-9.8-1.9-22.7-1.9-32.7,0c0,13.5,0.1,26.4,0.3,35.5c22.4-0.2,31.2-1.1,31.3-1.1l2.8-0.3L669.4,353.9z"/>
			<path class="st0" d="M154.1,353.8h-18.5l0.1-2.4c0-0.3,0.6-25.8,0.6-54.5c0-14.3-0.2-25.7-0.3-33.3c-9.6,0.2-17.2,0.7-17.3,0.7
				l-2.7,0.2l1.8-17.2l28.2-0.1l25.9,0.1l1.8,17.2l-2.8-0.2c-0.1,0-7.2-0.5-17.2-0.7c-0.1,7.6-0.3,19-0.3,33.3
				c0,28.7,0.6,54.3,0.6,54.5L154.1,353.8z"/>
			<path class="st0" d="M217,353.8h-18.5l0.1-2.4c0-0.3,0.6-25.8,0.6-54.5c0-14.2-0.2-25.7-0.3-33.3c-10.1,0.2-17.2,0.7-17.2,0.7
				l-2.8,0.2l1.8-17.2l25.8-0.1l28.2,0.1l1.8,17.2l-2.7-0.2c-0.1,0-7.6-0.4-17.3-0.7c-0.1,7.6-0.3,19-0.3,33.3
				c0,28.7,0.6,54.3,0.6,54.5L217,353.8z"/>
			<path class="st0" d="M299.6,353.9l-50.5-0.1l0.1-2.4c0-0.3,0.7-30,0.8-58.7c0.1-28.6-0.5-42.8-0.5-43l-0.1-2.4l47.8,0.1l1.8,17.7
				l-2.8-0.3c-0.1,0-8.8-0.9-28.8-1.3c-0.1,6.8-0.2,14.2-0.3,22.2c10.4-2.1,22.4-2.6,32.1-1.4l1.8,0.2l1.8,18.1l-3.1-0.6
				c-9.8-1.9-22.7-1.9-32.7,0c0,13.5,0.2,26.4,0.3,35.5c22.4-0.2,31.2-1.1,31.3-1.1l2.8-0.3L299.6,353.9z"/>
			<path class="st0" d="M451.4,337.4c-1-3.4-2-7.1-3.1-10.9l-0.8-3c-2.2,3.1-4.8,5.9-7.6,8.1c-2.3,2.1-5,3.6-7.7,4.6
				c-0.1,0-0.1,0-0.2,0.1c-0.4,0.1-0.8,0.3-1.2,0.4c-0.3,0.1-0.6,0.2-0.9,0.2c-0.4,0.1-0.7,0.1-1.1,0.2c-0.2,0-0.4,0.1-0.6,0.1
				c-0.5,0.1-1,0.1-1.5,0.1c-12.6,0-20.5-13.5-20.5-35.2c0-22.3,10.6-37.9,20-37.9c6.1,0,11.2,2.9,16.1,9.8l0.9-0.2l3.9-26.2
				l-2.7,0.1c-4,0.1-6.7-0.2-9.6-0.5c-2.8-0.3-5.6-0.5-9.8-0.5c-20.4,0-36.4,24.3-36.4,55.4c0,32.1,14.7,52.8,37.4,52.8
				c11.1,0,21.8-6.5,26-10.6l1-1L451.4,337.4z"/>
			<path class="st0" d="M52.4,279.1c6.6-6.6,8.4-13.8,8.4-20.3c0-16.6-13.3-29.2-31-29.6l-2.3,0c-2.2,0-5.3,0.2-8.5,0.3
				c-3.1,0.2-6.4,0.3-8.6,0.3H2.8l0.1,2.4c0,0.2,0.7,17.5,0.7,46.2c0,23.5-0.5,54.2-0.6,66.3l-0.5,9.1h20.5
				c28.7,0,47.2-17,47.2-43.2C70,297.9,63.5,286.3,52.4,279.1z M21.6,246.7c2-0.5,4.4-0.7,7.3-0.7c6.5,0,13.6,4.9,13.6,12.9
				c0,6.5-5.9,12.8-14,12.8c-3.1,0-5.8,0.2-7.2,0.4C21.3,263.2,21.4,254.7,21.6,246.7z M23.8,336.4c-0.6,0-1.3,0-1.9-0.1
				c-0.1-8-0.5-27.6-0.6-47.3c1.8-0.3,3.8-0.4,6.1-0.5c14.7,0.5,24.2,9.2,24.2,22.1C51.6,326.8,41.2,336.4,23.8,336.4z"/>
		</g>
	</g>
	<g>
		<path class="st1" d="M504.7,465.5c-9.3-0.7-14.9-1.7-14.9-8.3c0-1.8,0.3-4.3,2.5-6.5c2.4-2.4,6.4-3.7,11.6-3.7
			c10.1,0,15.2,4.4,15.9,5.2l-1-6.5c-0.7,0-4.3-1.1-5.6-1.5c-2.9-0.8-5.8-1.3-9.3-1.3c-6.4,0-11.2,1.6-14.5,4.9
			c-2.4,2.5-3.8,5.8-3.8,9.4c0,11.1,10.5,12,18.8,12.6c9.4,0.7,14.5,1.6,14.5,8.5c0,6.9-8.2,10.5-16.3,10.5
			c-5.2,0-10.2-1.4-14.1-3.1c-1.7-0.8-3.2-1.8-4-2.6l1,6.5c0.8,0,6,1.6,6,1.6c3.4,1,7.1,1.7,11.1,1.7c11.7,0,20.5-6.1,20.5-14.6
			C523.1,467,513.1,466.1,504.7,465.5z"/>
		<path class="st1" d="M226.9,488.1c-0.1-5.5-0.1-12.9-0.1-20.1c0-7.2,0-14.6,0.1-20.1c0.1-1.6,0.5-4.1,1.8-4.5h-8.6
			c1.3,0.4,1.8,2.9,1.8,4.5c0.1,5.5,0.1,12.9,0.1,20.1c0,7.2,0,14.6-0.1,20.1c-0.1,1.6-0.5,4.1-1.8,4.5h8.6
			C227.4,492.2,226.9,489.7,226.9,488.1z"/>
		<path class="st1" d="M465.8,492.6c-1.3-0.4-3.2-3.4-4-5.7c-1.2-3.6-2.5-7.6-3.8-11.4c-0.7-2-1.3-4-2-6c3.4-2.3,5.7-6.3,5.7-12.5
			c0-9.3-6.5-13.5-14.7-13.5h-25.5c1.3,0.4,1.8,2.9,1.8,4.5c0.1,5.5,0.1,12.9,0.1,20.1c0,7.2,0,14.6-0.1,20.1
			c-0.1,1.6-0.5,4.1-1.8,4.5h8.6c-1.3-0.4-1.8-2.9-1.8-4.5c-0.1-4.6-0.1-10.5-0.1-16.5h20.3l0,0c1.1,0,2.2-0.2,3.2-0.4
			c0.6,1.9,1.3,3.8,1.9,5.7c1.3,3.9,2.6,7.9,3.8,11.5c0.5,1.7,0.5,3.8-0.6,4.1H465.8z M428.3,467.3c0-7,0-14.1,0.1-19.4h19.3
			c5.7,0,9.4,3,9.4,9.5c0,6.4-3.1,10-10,10H428.3z"/>
		<path class="st1" d="M181.8,492.6c7.5,0,13.9-6.7,13.9-14.6c0-6-3.3-10.8-8-13c2.6-2.2,4.1-5.5,4.1-9.7c0-7.2-5.6-12-14-12h-17.2
			h-2h-1.8h-1.4h-1.7c1.3,0.4,1.8,2.9,1.8,4.5c0.1,5.5,0.1,12.9,0.1,20.1c0,7.2,0,14.6-0.1,20.1c-0.1,1.6-0.5,4.1-1.8,4.5H181.8z
			 M178,447.6c5.6,0,8.9,3.3,8.9,7.7c0,2.4-0.6,8.4-8.4,8.4h-18.2c0-5.9,0-11.6,0.1-16.1H178z M182,487.9h-21.6
			c-0.1-5.5-0.1-12.8-0.1-19.9H182c5,0,8.8,4.6,8.8,10C190.8,482.5,187.3,487.9,182,487.9z"/>
		<path class="st1" d="M397.2,492.6l1-5.8c-0.8,0.8-3.1,1.4-4.8,1.5h-24c-0.1-5.5-0.1-13-0.1-20.3c0-0.1,0-0.2,0-0.3h22.5
			c1.5,0,3.4,0.2,4.8,0.6v-5.5c-1.4,0.4-3.2,0.6-4.8,0.6h-22.5c0-5.8,0-11.4,0.1-15.8h23.3c1.8,0,4,0.7,4.8,1.5l-1-5.8h-34
			c1.3,0.4,1.8,2.9,1.8,4.5c0.1,5.5,0.1,12.9,0.1,20.1c0,7.2,0,14.6-0.1,20.1c-0.1,1.6-0.5,4.1-1.8,4.5L397.2,492.6z"/>
		<path class="st1" d="M338.2,447.6c1.8,0,4,0.7,4.8,1.5l-1-5.8h-37.6l-1,5.8c0.8-0.8,3.1-1.4,4.8-1.5h12.5c0.1,5.5,0.1,13,0.1,20.3
			c0,7.2,0,14.6-0.1,20.1c-0.1,1.6-0.5,4.1-1.8,4.5h8.6c-1.3-0.4-1.8-2.9-1.8-4.5c-0.1-5.5-0.1-12.9-0.1-20.1c0-7.3,0-14.8,0.1-20.3
			H338.2z"/>
		<path class="st1" d="M284.4,447.6c1.8,0,4,0.7,4.8,1.5l-1-5.8h-37.6l-1,5.8c0.8-0.8,3.1-1.4,4.8-1.5H267c0.1,5.5,0.1,13,0.1,20.3
			c0,7.2,0,14.6-0.1,20.1c-0.1,1.6-0.5,4.1-1.8,4.5h8.6c-1.3-0.4-1.8-2.9-1.8-4.5c-0.1-5.5-0.1-12.9-0.1-20.1c0-7.3,0-14.8,0.1-20.3
			H284.4z"/>
	</g>
	<g>
		<path class="st1" d="M90.1,349.2h9c-0.1-7.6-0.6-32.4-0.6-56.4c0-22,0.4-35.6,0.5-40.8h-8.9c0.2,5.2,0.5,18.7,0.5,40.8
			C90.7,316.8,90.3,341.6,90.1,349.2z"/>
		<path class="st1" d="M467,252c0.2,6.3,0.6,24.4,0.6,47.6l0,7.8c0,35.3,10.4,42.6,26.1,42.8l0.3,0l0.2,0
			c15.6-0.2,26.1-7.5,26.1-42.6l0-8c0-23.2,0.4-41.3,0.6-47.6h-9c0.2,6.1,0.6,23.3,0.6,46.3l0,7.8c0,22.5-3,35.5-18.4,35.6
			c-15.5-0.2-18.5-13.1-18.5-35.5l0-8c0-23,0.4-40.2,0.6-46.3H467z"/>
		<path class="st1" d="M623.7,349.1l41.6,0.1l0.8-7.9c-4.4,0.3-14,0.8-31.2,0.9l-2.3,0l0-2.3c-0.1-9.7-0.3-24.4-0.3-39.8l0-1.9
			l1.8-0.4c9.8-2.2,22.8-2.5,33.4-0.9l-0.8-8.3c-9.7-0.9-21.6-0.1-31.5,2.2l-2.9,0.7l0-2.9c0-10,0.2-19.3,0.4-27.5l0.1-2.3l2.3,0
			c15.3,0.2,24.4,0.8,28.6,1.1l-0.8-7.9l-38.8-0.1c0.2,5.2,0.5,18.7,0.4,40.8C624.4,316.7,623.9,341.5,623.7,349.1z"/>
		<path class="st1" d="M253.9,349.1l41.6,0.1l0.8-7.9c-4.4,0.3-14,0.8-31.2,0.9l-2.3,0l0-2.3c-0.1-9.7-0.3-24.4-0.3-39.8l0-1.9
			l1.8-0.4c9.8-2.2,22.8-2.5,33.4-0.9l-0.8-8.3c-9.7-0.9-21.6-0.1-31.5,2.2l-2.9,0.7l0-2.9c0-10,0.2-19.3,0.4-27.5l0.1-2.3l2.3,0
			c15.3,0.2,24.4,0.8,28.6,1.1l-0.8-7.9l-38.8-0.1c0.2,5.2,0.5,18.7,0.4,40.8C254.6,316.7,254.1,341.5,253.9,349.1z"/>
		<path class="st1" d="M425.1,251.2c-17.8,0-31.8,22.3-31.8,50.8c0,29.3,12.9,48.2,32.8,48.2c8.5,0,17.4-4.6,21.8-8.4l-0.9-3.1
			c-0.5-1.9-1.1-3.9-1.7-6c-4.8,5.8-12.5,9.1-18.6,9.1c-15.5,0-25.1-15.3-25.1-39.8c0-23.5,11.1-42.5,24.7-42.5
			c5.6,0,10.4,2.3,13.7,5.1l1.9-12.3c-2.9,0-5.2-0.3-7.4-0.5C431.8,251.5,429.1,251.2,425.1,251.2z"/>
		<path class="st1" d="M47.4,281.5l-3-1.7c0.8-0.6,3.1-2.4,5-4.3c4.8-4.8,6.8-10.6,6.8-16.7c0-14.2-11.7-25-27.3-25
			c-5.1,0-11.1,0.7-18.5,0.7H7.6c0.2,5.7,0.6,21.3,0.6,44c0,23.5-0.5,54.3-0.6,66.4l-0.2,4.3h15.6c26.2,0,42.6-14.8,42.6-38.6
			C65.4,298.4,58.8,287.8,47.4,281.5z M16.7,274.7c0-10.5,0.1-20.4,0.3-29.7l0-1.6l1.5-0.5c2.8-1,6.2-1.5,10.4-1.5
			c8.7,0,18.2,6.7,18.2,17.5c0,9.7-8.6,17.4-18.6,17.4c-5.8,0-11.8,1.1-11.8,1.1L16.7,274.7z M23.8,341c-1.5,0-3-0.1-4.5-0.4
			l-1.9-0.3l0-1.9c-0.1-6.4-0.5-29-0.6-51.3l0-1.9l1.8-0.4c2.6-0.6,5.5-0.9,9-0.9c17.3,0.6,28.8,11.4,28.8,26.7
			C56.3,329.4,43.8,341,23.8,341z"/>
		<path class="st1" d="M140.4,349.2h9c-0.2-7-0.6-28.6-0.6-52.3c0-15.9,0.2-28.2,0.4-35.7l0-2.3c4.6,0,16,0.4,19.3,0.6l-0.8-7.6
			l-21.7-0.1l-24,0.1l-0.8,7.6c3.4-0.2,15.2-0.6,19.3-0.6l0,2.3c0.2,7.5,0.4,19.8,0.4,35.7C141,320.6,140.6,342.2,140.4,349.2z"/>
		<path class="st1" d="M203.3,349.2h9c-0.2-7-0.6-28.6-0.6-52.3c0-15.9,0.2-28.2,0.4-35.7l0-2.3c4.6,0,16,0.4,19.3,0.6l-0.8-7.6
			l-21.7-0.1l-24,0.1l-0.8,7.6c3.4-0.2,15.2-0.6,19.3-0.6l0,2.3c0.2,7.5,0.4,19.8,0.4,35.7C203.9,320.6,203.4,342.2,203.3,349.2z"/>
		<path class="st1" d="M361.6,304.8l1-1c5.8-5.4,8.7-13.2,8.7-23.1c0-10.6-3.1-18.6-9.1-23.6c-5.1-4.3-11.8-6.3-20.7-6.2h0
			c-3.2,0-7.7,0.3-11.7,0.6c-3,0.2-5.6,0.4-7.1,0.4h-0.5c0.2,5.2,0.5,18.7,0.5,40.8c0,24-0.4,48.8-0.6,56.4h9
			c-0.1-5.5-0.4-19.8-0.5-36.3l0-2.9l2.8,0.6c6.3,1.3,12.6,1.1,18.2-0.6l2.3-0.7l0.6,2.3c4.4,16.7,7.3,30.1,8.8,37.6h10.7
			c-2.5-8.4-7.3-24.7-12.3-43L361.6,304.8z M341.8,303.5c-3.1,0-6.4-0.5-9.5-1.5l-1.6-0.5l0-8.7c0-10.9,0.1-21,0.3-29.9l0-1.9
			l1.9-0.3c2.7-0.5,6.2-1.1,9.8-1.1c14.5,0,19.6,11.4,19.6,21.2C362.2,291.8,355.1,303.5,341.8,303.5z"/>
		<path class="st1" d="M587.7,296.8l-2.7-1.5l2.2-2.2c5.5-5.5,7.8-12.6,6.7-20.4c-1.9-12.8-12.4-21-26.9-21h0l-1.6,0
			c-1.8,0-4.1,0.1-6.2,0.2c-2.5,0.1-4.9,0.2-6.3,0.2h-5c0.2,5.2,0.5,18.7,0.5,40.8c0,24-0.4,48.8-0.6,56.4h8.3
			c2.3,0.1,4.7,0.3,7.1,0.5c2.8,0.3,5.5,0.5,7.7,0.5c17.6,0,31-12.3,31-28.7C601.9,310.7,596.7,301.7,587.7,296.8z M556.2,292.2
			c0-10.8,0.1-20.7,0.3-29.6l0-2.1l3.5-0.3c1.9-0.2,3.4-0.3,6.4-0.3c5.7,0,16.8,3,18.4,14.1v0c0.7,4.6-0.5,8.7-3.4,12
			c-4,4.5-11.2,7.2-22.6,8.5l-2.6,0.3L556.2,292.2z M570.9,341.1c-5.8,0-8.6-0.5-12.6-1.7l-1.6-0.5l0-1.7
			c-0.1-8.2-0.3-19.2-0.3-30.9l0-1.6l1.5-0.6c2.7-1,7-2.2,13.1-2.2c13.3,0,21.9,7.7,21.9,19.7C592.8,334.4,581.8,341.1,570.9,341.1z
			"/>
	</g>
	<g>
		<path class="st1" d="M353.5,94.7h-7c-0.6-2.4-0.9-5.5-0.9-8.8V83c0-4.8-3.6-8.7-8.1-8.7c-4.5,0-8.1,3.9-8.1,8.7v2.8
			c0,3.3-0.3,6.5-0.9,8.8h-7v19.6h8.1v54.8c0,3.5,1.3,6.6,2.5,9.5c0.7,1.6,1.4,3.3,1.9,5.1l0.5,1.8h5.8l0.5-1.8
			c0.5-1.8,1.2-3.4,1.9-5.1c1.3-3,2.5-6,2.5-9.5v-54.8h8.1V94.7z M334.2,85.8V83c0-2.1,1.5-3.8,3.3-3.8c1.8,0,3.3,1.7,3.3,3.8v2.8
			c0,3.2,0.3,6.3,0.8,8.8h-8.1C334,92.1,334.2,89.1,334.2,85.8z M340.5,169.1c0,2.5-1,4.9-2.2,7.7c-0.3,0.7-0.6,1.4-0.9,2.1
			c-0.3-0.7-0.6-1.4-0.9-2.1c-1.2-2.8-2.2-5.1-2.2-7.7v-54.8h6.1V169.1z M348.7,109.5h-22.3v-10h22.3V109.5z"/>
		<path class="st1" d="M406.6,108.8c0-0.8,0-1.6-0.1-2.4l0-0.2c-0.7-8.2-6.5-18.1-13.7-26.2l0,0c-0.8,1.5-1.8,3.2-2.7,4.9
			c-3.7,6.5-7.9,13-8.7,21.3l0,0.2c-0.1,0.9-0.1,1.7-0.1,2.4c0,8.5,3.8,16,9.7,21c-2.1,6.8-5.9,12.9-11.1,17.4h7.1
			c3.9-4.6,6.7-10.1,8.4-16.2C402.2,126.2,406.6,118,406.6,108.8z M396.1,109.5H392c1,5.1,1,10.1,0.3,14.8
			c-3.8-4.1-6.1-9.7-6.1-15.5c0-0.6,0-1.3,0.1-2.2c0.6-6.4,3.6-11.7,6.9-17.3l0.4-0.7c4.7,6.5,7.7,13,8.1,18.2
			c0.1,0.7,0.1,1.4,0.1,2c0,5.2-1.8,10.2-4.9,14.2C397.2,118.6,397,114,396.1,109.5z"/>
		<path class="st1" d="M295.1,147.2c-5.2-4.5-9-10.6-11.1-17.4c5.9-4.9,9.7-12.5,9.7-21c0-0.8,0-1.5-0.1-2.4l0-0.2
			c-0.7-8.3-4.9-14.8-8.7-21.3c-1-1.7-1.9-3.4-2.7-4.9l0,0c-7.2,8.2-13,18-13.7,26.2l0,0.2c-0.1,0.9-0.1,1.7-0.1,2.4
			c0,9.2,4.5,17.4,11.2,22.2c1.7,6,4.5,11.5,8.4,16.1H295.1z M273.2,108.8c0-0.6,0-1.3,0.1-2c0.4-5.1,3.4-11.6,8.1-18.2l0.4,0.7
			c3.3,5.6,6.3,10.9,6.9,17.3c0.1,0.9,0.1,1.6,0.1,2.2c0,5.8-2.2,11.4-6.1,15.5c-0.8-4.8-0.7-9.8,0.3-14.8h-4.2
			c-0.9,4.6-1.1,9.1-0.7,13.5C275,119,273.2,114,273.2,108.8z"/>
	</g>
</g>
</svg>
