<svg id="Layer_1" data-name="Layer 1" xmlns="http://www.w3.org/2000/svg" viewBox="0 0 128 104"><defs><style>.cls-1{fill:#18374b;}</style></defs><title>Artboard 3</title><path class="cls-1" d="M57.57,67.33a29.28,29.28,0,0,0-1.88-7.7l-.27-.72H33.88A7.21,7.21,0,0,0,34,57.44a8,8,0,0,0-8.21-7.67,7.66,7.66,0,1,0-.72,15.31,18.33,18.33,0,0,0-.38,2.24l0,.15c-.05.66-.08,1.23-.08,1.76,0,10,7.41,18.15,16.51,18.15s16.51-8.14,16.51-18.15c0-.54,0-1.11-.08-1.81Zm-2.34-1H27.1c.33-1.75,1-4,1.35-5.22H53.89A28,28,0,0,1,55.23,66.33Zm-35.4-8.9a5.76,5.76,0,0,1,6-5.47,5.76,5.76,0,0,1,6,5.47,5,5,0,0,1-.22,1.47H26.84l-.24.75a26.54,26.54,0,0,0-1.07,3.24A5.73,5.73,0,0,1,19.82,57.44ZM41.15,85.17c-7.89,0-14.31-7.16-14.31-16,0-.22,0-.45,0-.69H55.44c0,.24,0,.47,0,.69C55.46,78,49,85.17,41.15,85.17Z"/><path class="cls-1" d="M74.86,55.68,101,25.26H63.48l-.72-1.65a5.2,5.2,0,1,0-2.27.54h.1l.49,1.12H46.53L72.66,55.68V88.11H64.13v2.2H83.39v-2.2H74.86ZM57.45,18.92a3,3,0,1,1,3,3A3,3,0,0,1,57.45,18.92ZM74.17,51.17l.5-.22L68.76,37.39H87.67L74.86,52.3V51.17Zm22-23.71-6.64,7.72H67.8l-3.36-7.72ZM62,27.47l3.36,7.72H58l-6.64-7.72Zm-2.18,9.92h6.51l6.29,14.45h0v.47Z"/><path class="cls-1" d="M105.86,45.11l2.84-11.87-2.14-.51-3,12.39H93.29V88.22l-.11.47.11,0v1.6h17.09V45.11Zm2.32,2.2v6.07h-4.3l1.45-6.07Zm-5.11,0-1.45,6.07H95.49V47.31Zm-7.57,8.27h5.6L95.49,79Zm.09,32.53,7.77-32.53h4.82V88.11Z"/></svg>