<svg id="Layer_1" data-name="Layer 1" xmlns="http://www.w3.org/2000/svg" viewBox="0 0 128 104"><defs><style>.cls-1{fill:#18374b;}</style></defs><title>Artboard 2</title><path class="cls-1" d="M7.68,10.9V21.1H120.32V10.9Zm110.44,8H9.88V13.1H118.12Z"/><path class="cls-1" d="M25.94,71.45a8.23,8.23,0,1,0-8.23-8.23A8.24,8.24,0,0,0,25.94,71.45Zm0-14.25a6,6,0,1,1-6,6A6,6,0,0,1,25.94,57.2Z"/><path class="cls-1" d="M108.28,66.7c5-.6,8.86-5.23,8.86-10.84,0-.31,0-.65-.05-1.08v0A17.31,17.31,0,0,0,116,50.18l-.27-.72H98.6l-.24.77a28.29,28.29,0,0,0-1.09,4.49v.1c0,.39,0,.73,0,1,0,5.61,3.89,10.24,8.86,10.84V82.9H88.45l3.09-25v-.13a10.66,10.66,0,0,0-5.82-9.48V45.86A4.71,4.71,0,0,0,81,41.16H79a4.71,4.71,0,0,0-4.71,4.71v2.46a10.66,10.66,0,0,0-5.82,9.48l3.1,25.09h-10V44.62a6.14,6.14,0,0,0-4.24-5.79V25H49.48V38.83a6.14,6.14,0,0,0-4.24,5.79V82.9h-7V51.52a10.06,10.06,0,0,0-3.76-7.84c-4.06-3.5-4-6.56-4-10.1,0-.35,0-.7,0-1V25H21.39v7.54c0,.35,0,.69,0,1,0,3.55.08,6.61-4,10.09a10.06,10.06,0,0,0-3.77,7.85V82.9h-6V93.1H120.32V82.9h-12ZM99.41,55.86c0-.26,0-.55,0-.94a21.58,21.58,0,0,1,.76-3.26h13.95a14.08,14.08,0,0,1,.72,3.26l1.1-.09L114.9,55c0,.35,0,.63,0,.89,0,4.8-3.48,8.71-7.76,8.71S99.41,60.66,99.41,55.86Zm-25.65,27-3-23.92H89.2l-3,23.92Zm2.71-35.35V45.86A2.51,2.51,0,0,1,79,43.36h2a2.51,2.51,0,0,1,2.51,2.51v1.62l-.17,0c-.29-.07-.59-.13-.89-.17l-.34-.05a10.69,10.69,0,0,0-1.23-.08H79.12a10.67,10.67,0,0,0-1.23.08l-.35.05c-.3,0-.6.1-.89.17Zm-.75,2.58.09,0a8.33,8.33,0,0,1,2.45-.64,8.5,8.5,0,0,1,.85,0h1.77a8.49,8.49,0,0,1,.85,0,8.33,8.33,0,0,1,2.45.64l.09,0a8.47,8.47,0,0,1,5,6.64H70.74A8.47,8.47,0,0,1,75.72,50.07ZM59.36,51.85l-.13-.13L47.44,63.51V47.78H59.36ZM55.12,27.2V31H51.68V27.2ZM50.75,40.79l.93-.14V33.2h3.44v7.44l.93.14a3.92,3.92,0,0,1,3.31,3.84v1H47.44v-1A3.92,3.92,0,0,1,50.75,40.79ZM47.44,66.62,59.36,54.7V82.9H47.44ZM36,51.87v24H15.87v-24ZM28.28,27.2V31H23.6V27.2ZM18.84,45.36c4.85-4.17,4.8-8.23,4.76-11.81,0-.12,0-.24,0-.35h4.67c0,.12,0,.23,0,.35,0,3.58-.09,7.64,4.76,11.81l0,0a7.9,7.9,0,0,1,2.73,4.29H16.09A8,8,0,0,1,18.84,45.36ZM15.87,78H36V82.9H15.87ZM118.12,90.9H9.88V85.1H118.12Z"/></svg>